# xmcd
#
# Track frame offsets: 
#        150
#        20185
#        43242
#        63277
#
# Disc length: 1225 seconds
#
# Revision: 0
# Processed by: cddbd v1.4PL0 Copyright (c) Steve Scherf et al.
# Submitted via: ExactAudioCopy v0.90b4
#
DISCID=3404c704
DTITLE=Congo Norvell - Lullabies
DYEAR=1992
DGENRE=Alt. Rock
TTITLE0=Lullaby
TTITLE1=Moonlight
TTITLE2=Song
TTITLE3=Angel
EXTD=FSCO 106
EXTT0=
EXTT1=
EXTT2=
EXTT3=
PLAYORDER=
